<?xml version="1.0" encoding="UTF-8" standalone="no"?>
<!-- Created with Inkscape (http://www.inkscape.org/) -->

<svg
   width="430"
   height="430"
   viewBox="0 0 113.77083 113.77083"
   version="1.1"
   id="svg5"
   inkscape:version="1.1 (c68e22c387, 2021-05-23)"
   sodipodi:docname="loader.svg"
   xmlns:inkscape="http://www.inkscape.org/namespaces/inkscape"
   xmlns:sodipodi="http://sodipodi.sourceforge.net/DTD/sodipodi-0.dtd"
   xmlns="http://www.w3.org/2000/svg"
   xmlns:svg="http://www.w3.org/2000/svg">
  <sodipodi:namedview
     id="namedview7"
     pagecolor="#505050"
     bordercolor="#ffffff"
     borderopacity="1"
     inkscape:pageshadow="0"
     inkscape:pageopacity="0"
     inkscape:pagecheckerboard="1"
     inkscape:document-units="mm"
     showgrid="false"
     units="px"
     inkscape:zoom="0.70551956"
     inkscape:cx="207.64839"
     inkscape:cy="150.95258"
     inkscape:window-width="1360"
     inkscape:window-height="745"
     inkscape:window-x="-8"
     inkscape:window-y="-8"
     inkscape:window-maximized="1"
     inkscape:current-layer="layer1" />
  <defs
     id="defs2" />
  <g
     inkscape:label="Capa 1"
     inkscape:groupmode="layer"
     id="layer1">
    <path
       style="font-variation-settings:normal;opacity:1;vector-effect:none;fill:#f5c324;fill-opacity:0.74;stroke:none;stroke-width:0.264583px;stroke-linecap:butt;stroke-linejoin:miter;stroke-miterlimit:4;stroke-dasharray:none;stroke-dashoffset:0;stroke-opacity:1;-inkscape-stroke:none;stop-color:#000000;stop-opacity:1"
       d="m 21.667416,-358.30915 -7.19568,53.74493 c 0,0 5.113971,4.34021 15.563524,5.38662 14.826666,1.48471 21.027588,-0.35379 21.027588,-0.35379 l 10.3566,-60.18408 z"
       id="path2910"
       sodipodi:nodetypes="ccsccc" />
    <path
       style="fill:#000000;stroke-width:0.264583"
       d="m 46.180683,-274.139 c -0.43656,-0.0617 -1.74625,-0.23863 -2.91042,-0.39325 -4.84704,-0.64377 -10.160947,-2.33385 -15.345828,-4.88073 -3.420351,-1.68012 -8.520039,-4.79138 -8.267505,-5.04391 0.23717,-0.23718 2.791484,0.86849 4.501833,1.94868 12.30937,7.77407 29.61137,9.70288 43.585455,4.85886 6.31686,-2.18969 10.74918,-4.61696 16.27188,-8.91093 2.38723,-1.85611 6.85321,-6.36357 8.57961,-8.6593 0.90352,-1.20148 1.22253,-1.46224 1.50357,-1.22899 0.46666,0.38729 0.28879,0.69334 -1.90819,3.28321 -8.72452,10.28473 -19.60036,16.41602 -32.89052,18.54212 -2.420425,0.38721 -11.447925,0.7204 -13.119885,0.48424 z"
       id="path854" />
    <path
       style="fill:#000000;stroke-width:0.264583"
       d="m 99.970713,-326.36334 c -0.97487,-0.71922 -1.93923,-1.58063 -2.14305,-1.91423 -0.20381,-0.3336 -0.51661,-2.01597 -0.69511,-3.73858 -0.1785,-1.72262 -0.67123,-4.55179 -1.09497,-6.28704 -2.077355,-8.50711 -5.634875,-14.91057 -11.609475,-20.89683 -4.77979,-4.78912 -9.69143,-8.16249 -15.52248,-10.66099 -2.91804,-1.25033 -2.94428,-1.26959 -3.57187,-2.62129 -0.34774,-0.74894 -1.30447,-2.05065 -2.12607,-2.8927 -0.8216,-0.84205 -1.4341,-1.531 -1.3611,-1.531 0.073,0 0.86427,0.18424 1.7584,0.40942 13.2251,3.33065 24.26446,11.53617 31.30756,23.27079 3.340955,5.56641 5.522482,11.46484 6.605282,17.85938 0.46043,2.7191 0.80211,10.32042 0.46365,10.31475 -0.13106,-0.002 -1.03591,-0.59245 -2.010767,-1.31168 z"
       id="path1716" />
    <path
       style="fill:#000000;stroke-width:0.264583"
       d="m 103.7937,-324.16456 c -0.24254,-0.0979 -0.33073,-1.12387 -0.33073,-3.84776 0,-12.19052 -4.190107,-23.21551 -12.649512,-33.28326 -6.41693,-7.63695 -14.99752,-13.14926 -24.92132,-16.00986 -1.81901,-0.52434 -4.70237,-1.16693 -6.40747,-1.42798 -2.840285,-0.43484 -3.911275,-0.80582 -3.911275,-1.3548 0,-0.547 8.400015,1.06708 12.475615,2.39721 9.45241,3.08493 17.60345,8.62014 24.0276,16.31663 6.200405,7.42845 9.996242,15.53295 11.673722,24.9246 0.58614,3.28159 1.03742,12.47729 0.61048,12.43956 -0.13001,-0.0115 -0.38521,-0.0809 -0.56711,-0.15434 z"
       id="path1714" />
    <path
       style="fill:#000000;stroke-width:0.264583"
       d="m 5.3306895,-305.16781 c -3.327747,-6.55974 -5.04060004,-13.94806 -5.05036704,-21.78453 -0.01318,-10.57629 2.83833304,-20.09868 8.52145344,-28.45668 1.014381,-1.49181 1.9517181,-2.77876 2.0829721,-2.85988 0.131255,-0.0811 0.238644,0.49664 0.238644,1.28392 0,1.01872 0.190709,1.7901 0.661458,2.67545 0.363802,0.68422 0.661459,1.35916 0.661459,1.49988 0,0.14071 -0.315421,0.75549 -0.700932,1.36618 -1.224349,1.9395 -3.4523871,6.60428 -4.2767441,8.95411 -2.0469534,5.83484 -3.0065974,13.27273 -2.4519854,19.00456 0.413877,4.27734 0.8186214,6.23147 2.1840714,10.54486 1.239104,3.91426 1.246968,3.52413 -0.163104,8.09201 l -0.584351,1.89297 z"
       id="path1712" />
    <path
       style="fill:#000000;stroke-width:0.264583"
       d="m 3.7789545,-302.75652 c -2.379204,-4.56074 -3.83452804,-8.65209 -4.996924,-14.04786 -0.823085,-3.8207 -1.143967,-12.0372 -0.642623,-16.45497 0.94239096,-8.3042 3.773312,-16.122 8.3057364,-22.93691 2.763135,-4.15463 7.5901681,-9.74453 7.5876751,-8.78684 -0.0013,0.54344 -0.796666,1.76241 -2.146805,3.29064 -7.5035285,8.4933 -11.68506154,18.17555 -12.85443454,29.76419 -0.98146496,9.72645 0.764107,18.92808 5.31294204,28.00673 1.30257,2.59969 1.6001124,3.74471 0.973092,3.74471 -0.106101,0 -0.798498,-1.16086 -1.538659,-2.57969 z"
       id="path1710" />
    <path
       style="fill:#ffffe4;fill-opacity:1;stroke-width:0.264583"
       d="m 17.859411,-355.81792 c 0.258168,-0.39401 0.541941,-2.13876 0.806871,-4.96094 0.484341,-5.15945 1.129364,-10.60008 1.273839,-10.74456 0.05659,-0.0566 1.340422,0.0845 2.852974,0.31342 7.348506,1.1124 12.970948,1.94643 31.060508,4.60751 2.03729,0.29969 4.716185,0.7098 5.953115,0.91135 1.5249,0.24847 2.35544,0.28056 2.57969,0.0996 0.20694,-0.16694 0.33073,-0.95118 0.33073,-2.09528 0,-3.11774 -1.69674,-5.5008 -5.019055,-7.04924 -1.15917,-0.54026 -1.97702,-0.69806 -4.10961,-0.7929 -3.33768,-0.14844 -4.81916,0.38663 -6.62183,2.39163 -0.65056,0.72358 -1.18168,1.21342 -1.18027,1.08854 0.004,-0.39418 1.77352,-2.47343 2.79531,-3.28545 0.88322,-0.7019 3.09535,-1.57181 3.99702,-1.57181 0.52324,0 0.42871,-0.33953 -0.42112,-1.51269 -1.4675,-2.02582 -5.0826,-3.02105 -7.55038,-2.0786 -1.0937,0.41769 -2.56108,1.73916 -2.85762,2.57347 -0.0697,0.196 -0.19201,0.29683 -0.27188,0.22407 -0.0799,-0.0728 0.10076,-0.8816 0.40141,-1.79743 l 0.54664,-1.66514 -0.89598,-0.9244 c -2.96294,-3.05699 -8.606234,-3.04018 -11.311964,0.0337 -1.094529,1.24343 -1.875346,3.39513 -1.922087,5.29667 -0.02405,0.97801 -0.05264,0.93785 -0.472784,-0.66398 -0.412983,-1.57452 -0.527418,-1.74072 -1.495767,-2.1724 -5.337866,-2.37957 -9.915398,1.40617 -8.827593,7.30064 0.9916,5.37317 0.747236,7.37979 -1.463416,12.01713 -0.810252,1.69969 -1.473187,3.22088 -1.473187,3.38043 0,0.15955 0.246767,0.6038 0.548371,0.98723 0.729009,0.92678 2.168697,0.97361 2.748065,0.0894 z"
       id="path1708" />
    <path
       style="fill:#000000;stroke-width:0.264583"
       d="m 72.109848,-345.60662 c -1.40659,-0.31119 -9.98478,-1.63832 -10.09881,-1.56239 -0.0246,0.0163 -0.13079,0.37296 -0.23608,0.79247 l -0.19143,0.76275 1.16211,-0.15064 c 0.63917,-0.0829 1.62841,-0.01 2.19831,0.16275 0.58063,0.17561 2.7326,0.32062 4.89479,0.32983 3.81035,0.0162 3.83875,0.012 2.27111,-0.33477 z"
       id="path1706" />
    <path
       style="fill:#000000;stroke-width:0.264583"
       d="m 79.650468,-345.32545 c 0,-1.07281 -1.07048,-2.97471 -2.23568,-3.97208 -0.5868,-0.50228 -1.75422,-1.11508 -2.64804,-1.38999 -1.74604,-0.53704 -11.44989,-2.03555 -11.68153,-1.80392 -0.0788,0.0788 -0.29332,0.87123 -0.47666,1.76091 -0.32123,1.5588 -0.31329,1.62175 0.21834,1.73179 0.30344,0.0628 2.63529,0.42368 5.18191,0.80195 2.54661,0.37825 5.068,0.80271 5.60308,0.94322 0.8859,0.23264 2.33442,1.53896 2.33442,2.10525 0,0.12741 0.74414,0.27393 1.65364,0.32559 0.90951,0.0517 1.74294,0.11688 1.85209,0.14492 0.10914,0.028 0.19843,-0.2634 0.19843,-0.64764 z"
       id="path1704" />
    <path
       style="fill:#000000;stroke-width:0.264583"
       d="m 62.850868,-335.96173 c 0.15769,-0.44529 0.9246,-5.71664 0.9246,-6.35522 0,-0.28482 -0.23209,-0.56803 -0.52917,-0.64572 -0.80443,-0.21036 -0.63172,-0.60583 0.26459,-0.60583 0.43656,0 0.79375,-0.13454 0.79375,-0.29899 0,-1.04757 -5.83456,1.4649 -6.966735,3 -0.31716,0.43004 -0.57615,1.29088 -0.64761,2.15256 -0.16852,2.03214 0.3027,2.44983 3.025375,2.68169 1.14148,0.0972 2.19449,0.21808 2.34001,0.2686 0.50451,0.17517 0.67865,0.13201 0.79519,-0.19709 z"
       id="path1702" />
    <path
       style="fill:#000000;stroke-width:0.264583"
       d="m 73.638888,-332.99598 c -0.16212,-0.61996 -0.69385,-0.5559 -0.82084,0.0989 -0.0566,0.29201 0.0915,0.44109 0.43825,0.44109 0.39703,0 0.48962,-0.13068 0.38259,-0.53998 z"
       id="path1700" />
    <path
       style="fill:#000000;stroke-width:0.264583"
       d="m 71.890838,-325.53259 c 0.57242,-0.29203 1.16368,-0.8084 1.31391,-1.1475 0.3737,-0.84352 0.0515,-3.88711 -0.44478,-4.20101 -0.56914,-0.36002 -0.57307,-0.35788 -1.87478,1.02132 -1.54541,1.63741 -3.30369,2.46746 -5.58126,2.63482 -3.85945,0.2836 -5.29446,-1.65073 -3.91599,-5.27857 0.28759,-0.75688 0.47455,-1.42448 0.41546,-1.48356 -0.0591,-0.0591 -1.07791,-0.22476 -2.26406,-0.36815 -1.938195,-0.23432 -2.211845,-0.21164 -2.701785,0.22394 -1.7847,1.58672 -2.0091,5.58145 -0.38902,6.925 0.34858,0.28907 6.502375,1.6934 9.840475,2.24564 1.61425,0.26705 4.54351,-0.032 5.60183,-0.57193 z"
       id="path1698" />
    <path
       style="fill:#000000;stroke-width:0.264583"
       d="m 73.497718,-318.57546 c 1.19028,-0.49733 1.91942,-1.12913 1.91942,-1.66317 0,-0.22034 -0.32691,-1.27968 -0.72646,-2.3541 -0.53735,-1.44493 -0.83008,-1.91864 -1.12448,-1.81964 -0.21891,0.0736 -1.11239,0.3912 -1.98552,0.70573 -2.09349,0.75416 -5.22935,0.59394 -10.30415,-0.52645 -2.02926,-0.44802 -3.850785,-0.81457 -4.047825,-0.81457 -0.49075,0 -1.37781,2.04008 -1.38492,3.18508 -0.003,0.51487 0.26208,1.46737 0.5895,2.11667 l 0.59532,1.18054 1.719785,0.15277 c 0.94588,0.084 4.43229,0.17332 7.74756,0.19844 4.90252,0.0371 6.20959,-0.0303 7.00177,-0.3613 z"
       id="path1696" />
    <path
       style="fill:#000000;stroke-width:0.264583"
       d="m 59.806718,-309.83412 c 0.26544,-0.31984 0.25889,-0.40107 -0.0337,-0.41846 -0.19972,-0.0119 0.0536,-0.20359 0.56292,-0.42605 0.58815,-0.25688 2.27762,-0.47451 4.63021,-0.59645 3.24636,-0.16827 3.87061,-0.27701 5.0509,-0.87988 2.05449,-1.04939 3.72225,-3.23744 3.16048,-4.14641 -0.11518,-0.18636 -2.81333,-0.27963 -8.08966,-0.27963 h -7.916845 l -0.15943,0.72761 c -0.0877,0.40018 -0.21319,0.89702 -0.27888,1.1041 -0.28696,0.90446 0.48906,3.26118 1.40921,4.27968 1.037505,1.1484 1.190655,1.20686 1.664845,0.63549 z"
       id="path1694" />
    <path
       style="fill:#000000;stroke-width:0.264583"
       d="m 48.668823,-310.36329 c 4.05567,-20.51968 7.90942,-44.11888 6.22172,-38.1 -1.63173,5.81929 -5.42585,26.77425 -6.44331,35.58646 -0.15962,1.38245 -0.35403,2.98979 -0.43203,3.57187 -0.21495,1.60414 0.28851,0.78894 0.65362,-1.05833 z"
       id="path1692" />
    <path
       style="fill:#000000;stroke-width:0.264583"
       d="m 57.143883,-308.3628 c 0.31481,-0.19921 0.32059,-0.31178 0.0337,-0.65741 -0.50226,-0.60519 -0.81048,-0.51224 -0.81048,0.24442 0,0.70606 0.1704,0.79666 0.77674,0.41299 z"
       id="path1690" />
    <path
       style="fill:#000000;stroke-width:0.264583"
       d="m 60.576988,-303.75904 c 2.41199,-1.14412 5.00575,-2.96834 6.08888,-4.28237 1.25932,-1.52777 1.14085,-1.66042 -1.48299,-1.66042 h -2.29676 l -1.90369,1.31602 c -1.04703,0.72381 -2.57333,1.52221 -3.391775,1.77424 l -1.4881,0.45822 v 1.8336 1.8336 l 1.25678,-0.17137 c 0.69122,-0.0943 2.139165,-0.58993 3.217655,-1.10152 z"
       id="path1688" />
    <path
       style="fill:#000000;stroke-width:0.264583"
       d="m 95.727068,-320.79895 c -3.309,-1.0578 -6.11168,-3.65264 -7.87547,-7.29142 -1.64035,-3.38414 -1.50641,-3.63378 0.42586,-0.79375 2.334,3.43047 4.81524,5.88533 7.3606,7.2823 2.673535,1.46732 2.692125,1.63502 0.089,0.80287 z"
       id="path1686" />
    <path
       style="fill:#000000;stroke-width:0.264583"
       d="m 89.307768,-310.24217 c -0.87313,-0.28084 -2.11028,-0.92899 -2.74922,-1.44035 -1.34025,-1.07261 -1.22779,-1.13372 0.72231,-0.39253 1.74555,0.66344 5.61234,1.57947 6.66736,1.57947 0.92244,0 1.04195,0.39819 0.18819,0.62699 -1.12236,0.30078 -3.24189,0.1368 -4.82864,-0.37358 z"
       id="path1684" />
    <path
       style="fill:#000000;stroke-width:0.264583"
       d="m 99.187863,-299.36176 c 2.481947,-1.2662 5.711127,-5.18961 6.919947,-8.40764 1.22862,-3.27077 1.61336,-7.236 0.96779,-9.97452 -0.35048,-1.48672 -0.34878,-1.48551 -3.34804,-2.38181 -4.002557,-1.19613 -7.778697,-3.90035 -10.802622,-7.73609 -0.9708,-1.23144 -3.07478,-4.30318 -4.67551,-6.82611 -3.33939,-5.26325 -4.95778,-7.36842 -6.08542,-7.91581 -0.81949,-0.3978 -9.39294,-1.09705 -13.4509,-1.09705 -2.88688,0 -3.08046,0.25001 -3.69581,4.77318 -0.37361,2.74621 -0.64941,3.81709 -1.38523,5.37861 -0.50531,1.07234 -0.9908,2.40028 -1.07886,2.95099 -0.14053,0.87887 -0.0746,1.05734 0.53976,1.45985 0.89336,0.58535 3.06151,0.4036 4.61013,-0.38644 3.66024,-1.86731 5.54655,-6.20876 3.97691,-9.15302 -0.55526,-1.04154 -0.55549,-1.04847 -0.0187,-0.56734 0.68262,0.61187 1.37334,2.04486 1.37866,2.8602 0.01,1.50491 1.06905,1.63965 2.62139,0.33345 1.0081,-0.84827 1.03832,-0.63261 0.0865,0.61768 -0.70412,0.92495 -0.70839,0.95001 -0.13229,0.7761 1.67044,-0.50428 1.789,-0.49832 0.93888,0.0471 -1.23013,0.78929 -1.66649,1.82725 -1.66649,3.96411 0,3.91438 1.14363,7.85182 3.53763,12.17985 0.67368,1.21793 1.22487,2.33077 1.22487,2.47298 0,0.14221 -0.71581,-0.36156 -1.5907,-1.11949 l -1.59071,-1.37805 -0.86126,0.65691 c -0.7878,0.60088 -0.85301,0.76071 -0.76448,1.87378 0.123,1.54654 -0.56485,2.72084 -2.47969,4.23333 -1.65089,1.30399 -5.04094,5.41999 -4.71502,5.72468 0.22099,0.20659 2.91795,0.85458 9.48832,2.27975 1.74625,0.37877 4.1275,0.99884 5.29167,1.37792 1.88256,0.61302 2.57024,0.69286 6.21771,0.72196 4.50116,0.0359 5.32846,0.24627 7.686435,1.95437 1.319,0.95548 1.53715,0.9789 2.85512,0.30653 z"
       id="path1682" />
    <path
       style="fill:#000000;stroke-width:0.264583"
       d="m 48.579483,-297.53802 c 2.59416,-0.44883 2.76845,-0.51344 3.03397,-1.12476 0.52647,-1.21208 3.20192,-19.07748 3.02016,-20.16718 -0.36659,-2.19786 -0.26924,-4.99133 0.20617,-5.91559 0.36194,-0.70367 0.39453,-1.00527 0.15663,-1.44978 -0.29508,-0.55137 -0.30414,-0.55203 -0.51354,-0.0375 -0.19208,0.47195 -2.76233,15.93843 -3.8024,22.88103 -0.22891,1.52797 -0.46981,3.02902 -0.53533,3.33568 -0.42551,1.99147 -18.226558,0.74947 -27.512375,-1.91957 -4.44766,-1.27839 -7.157197,-2.48 -7.097306,-3.14746 0.02553,-0.28468 0.528749,-4.02995 1.118233,-8.32282 1.614633,-11.75845 3.464113,-26.80947 4.66549,-37.96771 0.235019,-2.18281 0.511585,-4.18868 0.614593,-4.45749 0.156006,-0.40712 0.506241,-0.49551 2.096913,-0.52917 1.561984,-0.0331 1.909604,0.0339 1.909498,0.36771 -7.1e-5,0.22448 -0.357317,4.98191 -0.79388,10.57208 -0.436562,5.59017 -0.785579,10.40713 -0.775594,10.70437 0.01495,0.44519 4.975617,-20.73239 5.000956,-21.3496 0.0044,-0.10681 6.854082,-0.22587 15.221562,-0.26459 15.062945,-0.0697 15.213505,-0.0651 15.205635,0.45878 -0.004,0.29104 -0.52033,3.18343 -1.14657,6.42753 -0.948795,4.91499 -1.068785,5.8694 -0.719705,5.72467 0.23041,-0.0955 0.617525,-0.23106 0.860275,-0.30116 0.24275,-0.0701 0.55924,-0.44356 0.70331,-0.82988 0.35477,-0.95129 3.61969,-18.2527 3.47114,-18.3942 -0.0995,-0.0947 -8.738885,-1.39685 -37.15174,-5.59951 -2.324036,-0.34376 -4.259554,-0.59099 -4.301149,-0.54939 -0.04159,0.0416 -0.433123,3.45823 -0.870063,7.59253 -2.052315,19.41881 -4.388692,38.51987 -6.462475,52.83401 -0.343168,2.36868 -0.567719,4.52168 -0.499004,4.78444 0.301651,1.15352 4.506568,3.01318 9.656884,4.27084 8.762141,2.13964 20.313512,3.22601 25.239712,2.37372 z"
       id="path1680" />
    <path
       style="fill:#000000;stroke-width:0.264583"
       d="m 36.920263,-292.0015 c -3.820634,-0.3138 -9.532197,-1.21784 -12.648193,-2.002 -3.370021,-0.84809 -9.092094,-3.0824 -10.123408,-3.95291 l -0.776312,-0.65528 1.074648,0.52031 c 5.454306,2.64078 23.976605,5.61813 32.790015,5.2708 2.70565,-0.10662 2.82993,-0.0905 1.75054,0.22728 -2.64141,0.77759 -7.12673,0.99756 -12.06729,0.5918 z"
       id="path1678" />
    <path
       style="fill:#000000;stroke-width:0.264583"
       d="m 42.741103,-286.99775 c -5.48499,-0.73159 -17.318193,-2.45548 -21.790562,-3.1745 -6.529345,-1.04972 -6.330802,-1.41392 0.756185,-1.3871 6.304339,0.0239 12.90965,0.97599 18.465257,2.66171 2.2629,0.68663 5.08266,1.83998 5.08266,2.07893 0,0.15497 -0.0201,0.15354 -2.51354,-0.17904 z"
       id="path1676" />
    <path
       style="fill:#000000;stroke-width:0.264583"
       d="m 52.878963,-285.97735 c 0.94722,-0.85774 1.23287,-3.07171 1.14747,-8.89356 l -0.0405,-2.76388 -0.88713,0.85983 c -2.58395,2.50447 -9.49166,2.63367 -23.988392,0.44867 -5.487405,-0.82708 -10.774104,-2.27473 -14.174703,-3.88145 -1.685164,-0.7962 -3.547693,-2.56908 -3.547693,-3.37692 0,-1.5677 -2.1364051,4.8806 -2.6936591,8.13027 -0.397984,2.32087 -0.126064,3.02134 1.5270821,3.93377 3.281609,1.81127 15.107733,4.25121 26.566575,5.48117 2.11005,0.22649 4.25318,0.45827 4.7625,0.51507 0.50932,0.0568 3.14611,0.0872 5.85953,0.0676 4.38164,-0.0317 4.99337,-0.0899 5.46896,-0.52057 z"
       id="path1674" />
    <path
       style="fill:#000000;stroke-width:0.264583"
       d="m 45.344173,-276.65383 c -3.07015,-0.35783 -6.80639,-1.21912 -10.17656,-2.34592 -3.270597,-1.09351 -9.76039,-4.02204 -9.273064,-4.18448 0.15295,-0.051 1.981933,0.15022 4.064405,0.44712 8.303569,1.18385 11.571509,1.42875 19.396729,1.45361 8.60486,0.0273 10.811165,-0.2541 16.435755,-2.09658 6.92226,-2.26757 15.43692,-7.75003 19.33029,-12.44649 0.55607,-0.67077 1.30869,-1.37557 1.67249,-1.56622 0.68475,-0.35884 5.0853,-0.43365 5.42612,-0.0922 0.20811,0.20847 -2.0468,2.94887 -4.75452,5.77814 -8.03886,8.39978 -18.29164,13.45406 -30.297025,14.93545 -3.49947,0.43181 -8.68627,0.4834 -11.82462,0.11762 z"
       id="path1670" />
    <g
       id="g5495"
       transform="translate(-68.79793,163.61682)">
      <path
         style="fill:#020202;stroke-width:0.264583"
         d="m 119.64004,-50.88036 c -4.47743,-0.3391 -9.88422,-1.46474 -13.90001,-2.89385 -3.01751,-1.07384 -9.05181,-4.03401 -8.859066,-4.34587 0.26016,-0.42095 0.774949,-0.3249 1.405083,0.26216 0.315653,0.29408 0.665528,0.54111 0.777494,0.54898 0.111969,0.008 0.977489,0.3743 1.923369,0.81433 12.14816,5.65129 26.49504,6.41454 39.40967,2.09658 4.84105,-1.61858 11.3016,-5.11961 15.02689,-8.14321 0.61767,-0.50131 1.23452,-0.84258 1.37078,-0.75836 0.13627,0.0842 0.33392,0.0137 0.43922,-0.15665 0.12993,-0.21024 0.0721,-0.24019 -0.18015,-0.0932 -0.20439,0.11912 0.87854,-0.97753 2.40651,-2.437 1.52797,-1.45946 3.60446,-3.6828 4.61442,-4.94075 1.18949,-1.48155 1.92693,-2.19655 2.09359,-2.02989 0.30292,0.30291 -0.80029,1.78454 -3.70468,4.97544 -1.10026,1.2088 -2.11542,2.10661 -2.27233,2.00964 -0.16019,-0.099 -0.20726,-0.0518 -0.10818,0.10855 0.32074,0.51897 -6.93208,6.36787 -7.47799,6.03048 -0.13861,-0.0857 -0.33817,-0.0163 -0.44347,0.15402 -0.11957,0.19347 -0.0768,0.2389 0.11401,0.121 0.168,-0.10384 0.30546,-0.13553 0.30546,-0.0704 0,0.25546 -3.5156,2.30264 -5.98975,3.48791 -4.99853,2.3946 -9.47913,3.7673 -15.05487,4.61227 -3.40383,0.51583 -9.35787,0.84008 -11.896,0.64786 z m 0.39687,-2.37395 c -5.92363,-0.66971 -9.13799,-1.32009 -12.961,-2.62246 -2.47658,-0.84368 -2.91989,-1.03296 -6.05636,-2.58583 -2.388076,-1.18234 -2.473121,-1.25145 -1.369586,-1.11302 0.647126,0.0812 3.504626,0.44049 6.349996,0.79845 9.83476,1.23728 19.93098,1.43369 25.40477,0.49423 6.99969,-1.20136 14.34776,-4.46119 20.25496,-8.98574 1.09839,-0.8413 3.22276,-2.76575 4.7208,-4.27654 l 2.7237,-2.7469 2.40362,-0.0539 c 1.32199,-0.0296 2.49039,0.0324 2.59645,0.13783 0.41328,0.41091 -4.80577,6.27451 -7.88069,8.85396 -4.14025,3.47313 -9.12832,6.67098 -9.77862,6.26907 -0.16938,-0.10468 -0.22269,-0.0643 -0.1246,0.0945 0.32742,0.52978 -5.93116,3.03349 -10.40844,4.16385 -4.55508,1.14999 -12.58066,1.94499 -15.875,1.57254 z m -24.558135,-5.45968 c -0.58231,-0.35959 -0.789286,-0.63078 -0.61468,-0.80538 0.318334,-0.31834 2.236325,0.77961 2.007807,1.14936 -0.202774,0.3281 -0.372703,0.28614 -1.393127,-0.34398 z m -2.429364,-1.57662 c -0.79788,-0.53511 -0.972434,-0.73606 -0.529167,-0.60919 1.434796,0.41069 2.411246,0.92169 2.252385,1.17873 -0.234442,0.37934 -0.380262,0.33115 -1.723218,-0.56954 z m 21.563539,-0.11134 c -0.43656,-0.0589 -1.92484,-0.23387 -3.30729,-0.38882 -8.29701,-0.92999 -20.08678,-2.88361 -24.042126,-3.98391 -5.916859,-1.64596 -8.012174,-2.86585 -8.391018,-4.88526 -0.272544,-1.45278 0.254003,-4.00629 1.877611,-9.10558 2.757577,-8.66075 4.482457,-16.34104 6.47695,-28.83958 1.097484,-6.87743 2.498447,-17.41321 2.806264,-21.10418 l 0.170701,-2.04687 h -1.482643 c -1.321808,0 -1.576478,-0.0939 -2.34763,-0.86511 -1.275392,-1.27558 -1.155541,-2.36349 0.674553,-6.12299 1.970214,-4.04734 2.267601,-5.76426 1.636342,-9.4471 -0.5823,-3.39721 -0.459478,-5.63798 0.404648,-7.3824 0.362003,-0.73077 0.808895,-1.28543 1.003203,-1.24511 0.192717,0.04 0.272034,-0.0541 0.176257,-0.20906 -0.09577,-0.15497 0.152945,-0.54487 0.552715,-0.86645 1.748343,-1.4064 4.982737,-1.89903 7.122716,-1.08486 1.868046,0.71071 1.968204,0.72 2.152577,0.19945 0.33047,-0.93299 1.47116,-2.24954 1.82982,-2.11191 0.22249,0.0854 0.30396,3.7e-4 0.21694,-0.22639 -0.13272,-0.34588 0.86432,-1.10987 1.29077,-0.98907 0.10914,0.0309 0.19844,-0.0581 0.19844,-0.19774 0,-0.35462 3.28769,-1.33355 4.47865,-1.33355 1.06478,0 3.49058,0.72594 3.75301,1.12312 0.089,0.13475 0.23786,0.23482 0.33073,0.22239 0.52679,-0.0705 0.71094,0.007 0.5676,0.23896 -0.0892,0.14438 0.006,0.19735 0.21182,0.11824 0.22659,-0.087 0.85175,0.38865 1.58959,1.20931 1.20509,1.34036 1.22522,1.35009 2.21996,1.07386 1.41928,-0.39413 2.93145,-0.34862 4.56829,0.13747 2.2941,0.68127 4.5275,2.34239 4.09351,3.04461 -0.1152,0.18639 -0.0888,0.25394 0.0628,0.16029 0.14402,-0.089 0.45666,0.24666 0.69474,0.74593 0.29271,0.61382 0.67095,0.95864 1.16808,1.06489 0.40436,0.0864 1.62817,0.46869 2.71958,0.84949 1.61005,0.56177 2.26323,0.97052 3.4627,2.16688 2.0104,2.0052 2.71867,3.85377 2.56079,6.68355 -0.10633,1.90595 -0.078,2.04305 0.43713,2.11667 0.71317,0.10192 0.69841,0.35108 -0.34763,5.8648 -0.4657,2.45474 -0.7944,4.5155 -0.73044,4.57946 0.064,0.064 2.42116,0.46269 5.23822,0.88609 5.68289,0.8541 7.08191,1.20597 8.80124,2.21356 2.32609,1.36318 3.64851,3.19129 3.99894,5.52813 0.1817,1.2116 0.4227,1.5738 1.11733,1.6792 0.60685,0.0921 2.41105,1.69404 3.32468,2.95201 0.49784,0.68547 2.11809,3.19458 3.60056,5.57581 3.40616,5.47116 4.43625,6.86205 6.80526,9.1888 2.84655,2.7958 7.31668,5.25575 9.90955,5.45332 1.70936,0.13025 2.88625,2.66525 2.88625,6.21695 0,3.27025 -1.5218,8.42102 -3.30659,11.19163 -1.12948,1.75335 -3.27506,4.02033 -3.60943,3.81368 -0.13246,-0.0819 -0.20812,-0.003 -0.16814,0.17554 0.10094,0.45038 -2.05054,1.74261 -3.56245,2.13968 l -1.2539,0.32932 -1.58247,-1.11599 c -2.35333,-1.65962 -2.64109,-1.73184 -7.02223,-1.7623 -3.51719,-0.0245 -4.20958,-0.10623 -6.08541,-0.71868 -1.16417,-0.38009 -4.43446,-1.19121 -7.26732,-1.8025 -2.83285,-0.61129 -5.86894,-1.32456 -6.74687,-1.58504 -2.72969,-0.80991 -2.64218,-0.81664 -4.15382,0.31919 -2.38959,1.79551 -3.8714,2.40055 -7.89345,3.22304 l -0.66146,0.13527 0.0778,4.78931 c 0.0986,6.07098 -0.19505,8.94753 -1.03988,10.18559 -1.03043,1.51008 -2.1213,1.79692 -7.10771,1.86897 -2.4011,0.0347 -4.72282,0.0149 -5.15938,-0.044 z m 9.99093,-1.86205 c 1.18997,-0.34442 1.78303,-3.10926 1.78303,-8.31246 0,-3.55663 -0.19492,-4.67922 -0.62009,-3.57125 -0.54343,1.41617 -4.54353,2.51214 -9.20143,2.52106 -4.28985,0.008 -15.55023,-1.36742 -20.737854,-2.53347 -2.046417,-0.45998 -6.458744,-1.88943 -8.379267,-2.7146 -1.507856,-0.64787 -3.218813,-2.15035 -3.659066,-3.21321 -0.179414,-0.43314 -0.422035,-0.72831 -0.539158,-0.65592 -0.25672,0.15866 -1.666952,4.39648 -2.199145,6.60854 -0.946494,3.9341 -0.811752,4.76465 0.938273,5.78362 1.238417,0.72108 6.084592,2.21955 9.869613,3.05174 5.255548,1.15551 15.910144,2.70299 21.960414,3.18956 2.79981,0.22515 9.82159,0.12514 10.78468,-0.15361 z m -10.25551,-1.71825 c -0.87312,-0.12875 -3.43297,-0.48235 -5.68854,-0.78578 -2.25557,-0.30343 -7.45743,-1.07669 -11.559685,-1.71834 -4.102251,-0.64166 -7.733658,-1.1742 -8.069792,-1.18342 -0.57295,-0.0157 -0.578075,-0.03 -0.08198,-0.22899 3.299008,-1.32304 18.178267,0.42411 25.135417,2.95144 0.87313,0.31719 1.88516,0.7304 2.24896,0.91825 0.78708,0.40643 0.50014,0.4132 -1.98437,0.0468 z m -6.61458,-5.03263 c -3.77502,-0.41788 -9.21234,-1.29616 -11.244796,-1.81634 -3.75149,-0.96014 -9.339466,-3.11864 -10.054167,-3.88366 -0.345559,-0.3699 -0.311655,-0.368 0.262229,0.0147 3.081276,2.05463 21.148414,5.14611 30.561734,5.22945 l 3.96875,0.0351 -2.24896,0.34219 c -2.55231,0.38834 -8.09637,0.42708 -11.24479,0.0786 z m 12.96458,-5.14117 c 2.61143,-0.45613 3.22759,-0.82681 3.43433,-2.06611 0.0756,-0.45296 0.37862,-2.37138 0.67344,-4.26315 0.29483,-1.89177 0.84846,-5.28505 1.2303,-7.54063 0.7168,-4.23424 0.89226,-7.62217 0.51385,-9.92187 -0.1753,-1.06535 -0.10617,-1.65273 0.35503,-3.01687 0.51538,-1.5244 0.53197,-1.73469 0.16574,-2.10092 -0.22383,-0.22383 -0.45263,-0.35452 -0.50843,-0.29042 -0.088,0.10105 -1.42946,8.16361 -3.78256,22.73391 -0.36387,2.2531 -0.71494,4.1499 -0.78016,4.21512 -0.24058,0.24057 -2.95763,0.51373 -5.27029,0.52984 -5.83798,0.0407 -16.762839,-1.35656 -21.799987,-2.78808 -2.031522,-0.57734 -6.8662,-2.46556 -7.042238,-2.75039 -0.07888,-0.12763 0.03417,-1.4588 0.251209,-2.95816 0.968258,-6.68895 2.0388,-14.68748 2.914562,-21.77612 0.52137,-4.2201 1.119741,-9.04213 1.329709,-10.71562 0.209968,-1.67349 0.707067,-5.98951 1.104662,-9.59115 l 0.7229,-6.54843 h 1.952067 1.952067 l -0.151329,1.4552 c -0.327361,3.14794 -0.438721,4.48466 -0.947809,11.37709 -0.290208,3.92906 -0.59468,7.73906 -0.676606,8.46666 -0.138713,1.23197 -0.12048,1.28761 0.26519,0.80933 0.22778,-0.28247 0.414144,-0.69996 0.414144,-0.92773 0,-0.22778 0.897821,-4.40198 1.995157,-9.276 1.097332,-4.87401 2.122092,-9.54646 2.277232,-10.3832 l 0.28207,-1.52135 h 15.19031 15.19031 l -0.14214,0.59531 c -0.82699,3.46333 -2.36594,12.36907 -2.1373,12.36828 0.15674,-5.3e-4 0.66589,-0.23324 1.13144,-0.5171 0.94686,-0.57734 1.00895,-0.76096 1.92717,-5.69962 0.32467,-1.74625 1.05369,-5.54645 1.62005,-8.44489 0.56635,-2.89844 0.99043,-5.3092 0.94238,-5.35725 -0.0863,-0.0863 -5.67052,-0.94967 -12.6121,-1.94997 -1.96453,-0.28309 -5.11968,-0.74812 -7.01145,-1.03341 -1.89177,-0.28528 -7.13052,-1.06043 -11.64167,-1.72256 -4.511146,-0.66213 -8.716672,-1.31022 -9.345616,-1.4402 -0.811755,-0.16776 -1.16758,-0.14849 -1.226418,0.0664 -0.04559,0.1665 -0.281546,2.32679 -0.524348,4.80064 -1.542058,15.71153 -3.467582,31.70473 -6.116943,50.8067 -0.646369,4.66035 -1.175218,8.77702 -1.175218,9.14815 0,1.76594 4.588804,3.85041 11.787818,5.35463 2.873895,0.60049 11.408275,1.88666 14.009055,2.11123 2.87579,0.24831 7.1,0.14007 9.26042,-0.23728 z m 52.94732,-3.46449 c 2.24524,-2.08792 3.97267,-4.77647 5.04016,-7.84445 0.80487,-2.31318 1.11473,-6.66069 0.63793,-8.95048 -0.3426,-1.6453 -0.25815,-1.58265 -3.32749,-2.46847 -4.88169,-1.40887 -9.7466,-5.57449 -13.55936,-11.6103 -3.68551,-5.83438 -4.51049,-7.06896 -5.83381,-8.73028 -1.72415,-2.16451 -2.9072,-2.80208 -5.21308,-2.80945 -0.87313,-0.003 -3.73995,-0.14156 -6.37071,-0.30837 -5.35416,-0.33949 -6.54073,-0.22716 -7.13195,0.67515 -0.22097,0.33725 -0.63394,2.19504 -0.9177,4.12843 -0.38877,2.64886 -0.71998,3.94561 -1.34386,5.26143 -1.49878,3.16102 -1.50989,4.2462 -0.0494,4.82306 0.96969,0.383 3.49356,-0.11441 4.81582,-0.94912 2.56707,-1.62052 4.40216,-4.73366 4.21036,-7.14265 -0.11777,-1.47911 0.21965,-1.29199 0.45089,0.25004 0.29022,1.93531 1.01137,2.08365 2.74479,0.5646 l 0.64159,-0.56225 -0.60563,1.00611 c -0.66964,1.11245 -0.60265,1.43378 0.20843,0.99971 0.89258,-0.4777 0.91812,-0.32281 0.0651,0.39493 -1.23143,1.03618 -1.47949,2.23309 -1.09533,5.28507 0.52404,4.16338 1.62272,7.46938 3.39537,10.21689 0.34398,0.53316 0.65138,1.14623 0.6831,1.36237 0.0317,0.21615 0.23106,0.61337 0.44296,0.88271 0.36118,0.45908 0.35218,0.46567 -0.14389,0.10539 -1.16396,-0.84535 -1.6954,-1.42547 -1.53847,-1.67939 0.0938,-0.1517 0.0331,-0.18548 -0.14044,-0.0782 -0.16801,0.10383 -0.45429,0.0933 -0.6362,-0.0235 -0.40797,-0.26188 -1.52811,-0.30851 -1.37276,-0.0572 0.11512,0.18627 -0.66114,0.61671 -0.99225,0.55021 -0.10021,-0.0201 -0.10932,0.22886 -0.0202,0.5533 0.33331,1.21397 0.19264,2.70923 -0.31865,3.38706 -0.28101,0.37254 -1.05263,1.08001 -1.71471,1.57215 -0.66208,0.49214 -1.38237,1.0929 -1.60066,1.33501 -0.85838,0.9521 -3.75046,4.78769 -3.66383,4.85912 0.23325,0.19233 4.70078,1.27564 8.29404,2.01119 2.18282,0.44682 5.21891,1.1936 6.74688,1.65951 2.60283,0.79366 2.99591,0.84271 6.22973,0.77734 3.9557,-0.08 5.13789,0.17741 7.29777,1.58882 0.7818,0.51088 1.60005,0.9865 1.81833,1.05693 0.57107,0.18427 2.59854,-0.91278 3.86711,-2.09246 z m -12.19265,-9.5225 c -1.10164,-0.33799 -3.58071,-1.80933 -3.58071,-2.12517 0,-0.0518 0.32742,0.0706 0.7276,0.27211 1.04145,0.52437 4.20443,1.42852 5.75469,1.64501 0.7276,0.1016 1.50151,0.28537 1.71979,0.40836 0.70224,0.39567 -3.23505,0.22501 -4.62137,-0.20031 z m 6.18401,-10.53069 c -1.73454,-0.63859 -2.70788,-1.25238 -4.15837,-2.62225 -1.81461,-1.71376 -2.76513,-3.09406 -3.9015,-5.66556 -0.49593,-1.12224 -0.75498,-1.81641 -0.57567,-1.54259 3.55296,5.4255 6.52412,8.40458 9.80606,9.83222 1.1108,0.4832 0.14278,0.48169 -1.17052,-0.002 z M 132.0033,-79.9809 c 3.44052,-1.44694 7.86423,-4.96266 7.87562,-6.2591 0.001,-0.10914 -1.19861,-0.19844 -2.66571,-0.19844 h -2.66745 l -1.1577,0.94865 c -0.68079,0.55786 -1.28819,0.86799 -1.47447,0.75287 -0.18751,-0.11589 -0.24757,-0.0838 -0.14717,0.0786 0.18662,0.30196 -2.121,1.39484 -2.9452,1.39484 -0.40651,0 -0.54452,0.24967 -0.67855,1.22755 -0.0925,0.67516 -0.16826,1.64384 -0.16826,2.15263 v 0.92508 l 1.18462,-0.16237 c 0.65153,-0.0893 1.93146,-0.47646 2.84427,-0.86035 z M 120.77874,-86.24 c 0.39769,-1.86079 2.55535,-13.22082 3.07801,-16.20573 0.22933,-1.30969 0.64793,-3.69094 0.93022,-5.29167 0.9882,-5.6037 2.91067,-17.92628 2.92042,-18.71927 10e-4,-0.10914 -0.0984,-0.19843 -0.22159,-0.19843 -0.44287,0 -2.82342,10.89363 -4.42312,20.24062 -2.31721,13.53929 -3.37309,21.56354 -2.83747,21.56354 0.14116,0 0.39026,-0.62508 0.55353,-1.38906 z m 8.76904,1.13881 c 0.31559,-0.19966 0.26916,-0.33422 -0.26458,-0.76692 -0.35603,-0.28863 -0.66035,-0.50526 -0.67625,-0.48141 -0.0159,0.0239 -0.10748,0.3708 -0.20348,0.77098 -0.1406,0.58606 -0.0835,0.72681 0.29351,0.72355 0.25743,-0.002 0.64029,-0.11302 0.8508,-0.2462 z m 2.76524,-1.73412 c 0.16038,-0.29104 0.32333,-0.58074 0.3621,-0.64377 0.0388,-0.063 1.77287,-0.19302 3.85353,-0.28886 3.24793,-0.14962 3.98645,-0.26777 5.22116,-0.8353 1.72863,-0.79455 3.034,-1.85515 3.57795,-2.90702 0.37221,-0.71977 0.30795,-1.80509 -0.10711,-1.80908 -18.20016,-0.17516 -16.45382,-0.39118 -16.45101,2.03486 0.002,1.81492 0.43274,3.13199 1.37494,4.2051 0.90227,1.02763 1.68791,1.11606 2.16844,0.24407 z m 13.91096,-8.66511 c 1.74502,-0.89263 1.79152,-1.10415 0.81278,-3.69737 l -0.85487,-2.26501 -1.62926,0.68666 c -2.29089,0.96549 -5.42518,0.94358 -10.09593,-0.0706 -5.78594,-1.2563 -5.34674,-1.2236 -5.88059,-0.43784 -0.34635,0.50978 -0.46941,1.21113 -0.46941,2.67528 0,1.65145 0.1029,2.12864 0.61333,2.84427 l 0.61333,0.8599 h 7.86342 c 7.63345,0 7.89746,-0.0174 9.0272,-0.59532 z m -2.22294,-6.48978 c 0.28041,-0.15105 0.79059,-0.57484 1.13374,-0.94174 0.57523,-0.61505 0.60956,-0.80789 0.44003,-2.4717 -0.29444,-2.88982 -0.84387,-3.131 -2.73476,-1.20046 -1.4691,1.49991 -2.72131,2.13789 -4.91495,2.50407 -4.0263,0.67211 -5.85272,-1.68848 -4.19219,-5.41826 0.30651,-0.68845 0.44952,-1.31833 0.3178,-1.39974 -0.13171,-0.0814 -1.22534,-0.2633 -2.43028,-0.40422 l -2.19081,-0.25621 -0.69217,0.76057 c -0.38069,0.41831 -0.90098,1.30732 -1.15619,1.97558 -0.87952,2.303 0.13492,5.12228 1.98523,5.51727 0.50681,0.10819 2.35897,0.50693 4.11593,0.88608 5.10559,1.1018 8.80752,1.2628 10.31862,0.44876 z m 2.03554,-7.09651 c 0.19937,-0.19938 -0.34515,-1.42881 -0.63283,-1.42881 -0.11704,0 -0.34835,0.25327 -0.51401,0.56281 -0.23494,0.439 -0.22244,0.61273 0.0568,0.7897 0.42167,0.2672 0.86786,0.29844 1.09,0.0763 z m -10.81818,-4.0085 c 0.18138,-0.92753 0.65139,-4.42499 0.74961,-5.57798 0.0603,-0.70827 -0.0549,-0.95355 -0.58581,-1.24739 -0.6581,-0.36422 -0.6567,-0.36581 0.33127,-0.37515 1.17011,-0.0111 1.31732,-0.42508 0.23562,-0.66267 -0.55962,-0.12291 -1.28072,0.0826 -2.77012,0.78959 -1.10746,0.52566 -2.10645,0.97403 -2.21999,0.99637 -0.49128,0.0967 -1.96,1.99177 -2.22949,2.87671 -0.39291,1.29022 -0.0926,2.77617 0.64537,3.19377 0.32116,0.18173 1.41736,0.40206 2.43601,0.48961 3.41739,0.29372 3.25106,0.31729 3.40753,-0.48286 z m 16.65484,-9.12812 c -0.41958,-2.1863 -1.62428,-3.78879 -3.59899,-4.78737 -1.20405,-0.60887 -2.58294,-0.92323 -7.22535,-1.64726 -3.15554,-0.49214 -5.82662,-0.83962 -5.93575,-0.77217 -0.24116,0.14904 -0.90452,3.54119 -0.72718,3.71853 0.0693,0.0693 2.51226,0.47669 5.42885,0.90536 4.89498,0.71944 7.47418,1.35626 7.47418,1.8454 0,0.10847 0.29197,0.51226 0.64882,0.89731 0.57386,0.6192 0.84823,0.70009 2.37464,0.70009 h 1.72581 z m -6.09737,0.19843 c 0.0319,-0.14552 -0.41833,-0.33581 -1.00042,-0.42288 -7.73882,-1.15752 -10.78049,-1.58212 -10.83663,-1.51272 -0.0372,0.0459 -0.13852,0.45697 -0.22524,0.9134 l -0.15768,0.82988 1.50873,0.007 c 2.66676,0.0126 9.16746,0.34741 9.29905,0.47899 0.21944,0.21945 1.35139,-0.016 1.41219,-0.29377 z m -55.891199,-10.14156 c 0.556419,-0.45056 0.650084,-0.9893 1.345512,-7.73906 0.411105,-3.99014 0.750486,-7.47934 0.754179,-7.75378 0.0077,-0.57174 -0.740534,-0.6327 7.679633,0.62577 7.732735,1.15572 21.186015,3.11104 25.532295,3.71089 2.03729,0.28117 4.94304,0.69891 6.45721,0.92831 1.99804,0.3027 2.83249,0.33746 3.04271,0.12674 0.15931,-0.15969 0.28772,-1.14728 0.28535,-2.19466 -0.004,-1.60803 -0.12594,-2.12514 -0.7861,-3.3236 -2.62529,-4.76601 -10.38656,-6.3581 -14.55542,-2.98579 -0.29104,0.23543 -0.19319,0.0573 0.21746,-0.39589 0.88022,-0.97139 2.46511,-1.81162 4.21431,-2.23425 0.69122,-0.167 1.25677,-0.38085 1.25677,-0.47522 0,-0.0944 -0.53145,-0.77909 -1.181,-1.52162 -0.64954,-0.74253 -1.09602,-1.44419 -0.99218,-1.55923 0.10384,-0.11505 0.0526,-0.13135 -0.11382,-0.0362 -0.16644,0.0951 -0.70222,0.01 -1.19062,-0.18959 -3.01567,-1.23121 -6.25701,-0.47423 -7.67223,1.79178 l -0.51414,0.82323 0.17493,-0.79375 c 0.0962,-0.43656 0.31849,-1.03187 0.49396,-1.32292 0.37308,-0.6188 0.77181,-1.63886 0.55644,-1.42349 -0.0813,0.0813 -0.61088,-0.29256 -1.17678,-0.83088 -1.72611,-1.64201 -3.26335,-2.24354 -5.73348,-2.24354 -1.85304,0 -2.34279,0.10564 -3.70416,0.799 -2.23553,1.13858 -3.48363,3.03552 -3.7681,5.72698 l -0.20511,1.94068 -0.21297,-1.32291 c -0.117133,-0.72761 -0.315687,-1.51487 -0.441235,-1.74948 -0.125547,-0.23461 -1.063302,-0.69506 -2.083901,-1.02323 -1.997932,-0.64242 -3.462639,-0.60255 -4.880073,0.13282 -0.411459,0.21347 -0.873175,0.31083 -1.026036,0.21635 -0.152857,-0.0945 -0.202805,-0.0502 -0.110992,0.0983 0.09181,0.14856 -0.08106,0.49437 -0.384149,0.76848 -1.605709,1.45216 -2.156449,4.42898 -1.448514,7.82942 0.829053,3.98221 0.450458,6.3649 -1.694032,10.66136 -0.729541,1.46163 -1.320978,3.01288 -1.320978,3.46473 0,1.09794 0.80521,1.77705 2.285794,1.92781 0.165778,0.0169 0.57054,-0.18723 0.899467,-0.45358 z m -14.11311,52.14417 c -3.869761,-7.60066 -5.560627,-14.78127 -5.560557,-23.61406 7e-5,-8.86154 1.488722,-15.84714 4.902362,-23.00467 2.009935,-4.21431 5.588488,-9.66668 6.138927,-9.35342 0.158258,0.0901 0.201964,0.0688 0.09712,-0.0472 -0.253471,-0.28056 0.527637,-1.34459 2.73358,-3.7237 1.002464,-1.08116 1.822664,-1.79759 1.822664,-1.59206 0,0.58772 -1.738273,2.67361 -2.146355,2.57559 -0.201954,-0.0485 -0.282962,-0.004 -0.18002,0.099 0.102941,0.10295 -0.566518,1.15466 -1.487692,2.33716 -7.508192,9.63814 -11.2781,20.6174 -11.262337,32.79978 0.01021,7.89137 1.741048,15.196 5.316715,22.43808 0.856683,1.7351 1.557605,3.32913 1.557605,3.54228 0,0.93451 -0.582607,0.19368 -1.932015,-2.45672 z m 2.250809,-0.95973 c -1.603502,-2.71773 -3.565309,-8.18676 -4.432431,-12.3565 -2.282765,-10.97718 -0.799372,-23.28411 3.950059,-32.77157 1.708171,-3.41225 4.33138,-7.49591 4.677646,-7.28191 0.133305,0.0824 0.178787,-0.0159 0.10107,-0.21843 -0.07772,-0.20253 0.04271,-0.52094 0.267613,-0.7076 0.357302,-0.29653 0.408916,-0.20508 0.408916,0.7245 0,0.66965 0.293246,1.62133 0.791396,2.56832 l 0.791395,1.50447 -1.229678,2.02569 c -2.929154,4.82531 -4.823653,10.06661 -5.946073,16.45036 -0.465428,2.64712 -0.4666,11.37037 -0.0019,14.2875 0.357934,2.24701 1.392138,6.1537 2.410096,9.10411 0.503266,1.45865 0.512895,1.65378 0.143602,2.91041 -0.217709,0.74082 -0.615288,2.10377 -0.883512,3.02878 l -0.48768,1.68185 -0.560499,-0.94998 z M 175.78401,-105.29 c -0.33931,-9.21688 -2.77263,-17.86877 -7.01348,-24.93698 -2.4279,-4.04657 -7.12323,-9.85384 -9.90672,-12.25282 -0.40058,-0.34524 -0.65007,-0.75431 -0.55443,-0.90905 0.0985,-0.15932 0.0493,-0.20436 -0.1133,-0.10386 -0.15795,0.0976 -0.35689,0.0647 -0.44207,-0.0731 -0.0852,-0.13784 -0.0223,-0.33259 0.13985,-0.43278 0.36514,-0.22567 3.1921,2.51488 2.96807,2.87735 -0.0885,0.14323 -0.0432,0.18766 0.10069,0.0987 0.5203,-0.32157 4.8742,4.81415 7.40055,8.72944 3.10329,4.80942 5.63426,10.81243 6.8392,16.22133 1.30566,5.8611 1.883,15.08125 0.94433,15.08125 -0.11243,0 -0.27564,-1.93476 -0.36269,-4.29948 z m -3.09501,2.47997 c -0.65485,-0.4356 -1.55925,-1.18668 -2.00979,-1.66906 -0.77007,-0.8245 -0.84461,-1.09109 -1.24388,-4.44893 -1.7392,-14.62649 -8.62488,-25.64774 -21.25536,-34.02146 -2.02204,-1.34056 -5.13853,-2.96071 -7.84649,-4.07909 -1.93945,-0.80099 -2.10062,-0.93113 -2.73839,-2.21121 -0.37271,-0.74806 -1.28678,-1.9852 -2.03127,-2.74918 -0.74449,-0.76399 -1.25581,-1.38906 -1.13627,-1.38906 1.14921,0 7.61693,2.0909 7.42556,2.40055 -0.0813,0.13157 0.023,0.17365 0.23188,0.0935 0.50941,-0.19548 4.85953,1.86107 7.90252,3.73597 14.08628,8.6791 23.44452,24.33284 23.95621,40.07206 0.17597,5.41261 0.22394,5.24951 -1.25472,4.26591 z m -16.7731,-42.20456 c -0.84397,-0.74378 -1.18736,-1.20774 -0.98599,-1.3322 0.36943,-0.22832 3.01183,1.90283 2.79477,2.25404 -0.23856,0.386 -0.44296,0.28184 -1.80878,-0.92184 z m -3.73211,-2.69675 c -5.66645,-3.869 -13.5077,-6.88286 -20.86808,-8.02086 -1.69716,-0.26239 -3.1631,-0.55443 -3.25762,-0.64895 -0.43438,-0.43438 0.35835,-0.50134 2.36518,-0.1998 7.83858,1.17783 15.113,3.79567 21.19902,7.62887 2.81284,1.77163 3.3617,2.20345 3.17816,2.50042 -0.21417,0.34654 -0.3839,0.26483 -2.61666,-1.25968 z"
         id="path5497" />
    </g>
    <path
       style="font-variation-settings:normal;opacity:1;fill:#f5c324;fill-opacity:0.741176;stroke:none;stroke-width:0.265;stroke-linecap:round;stroke-linejoin:round;stroke-miterlimit:4;stroke-dasharray:none;stroke-dashoffset:0;stroke-opacity:1;paint-order:normal;stop-color:#000000;stop-opacity:1"
       d="m 25.4125,30.611719 h 3.90413 l -1.78706,22.272448 c 0,0 0.68703,-0.639396 0.79286,-1.139193 1.55499,-7.343283 4.45226,-21.133255 4.45226,-21.133255 h 30.38062 l -2.31267,13.012149 c -2.54134,1.922995 -3.21683,5.026425 -1.33498,7.589379 -1.22288,2.124612 -3.00406,3.786941 -1.51883,8.196516 L 53.21557,87.21639 C 52.078,87.394717 51.29656,87.655061 50.23433,87.651975 38.44762,87.617725 32.58859,86.916788 24.58729,84.380927 23.19583,83.939928 20.55022,82.768394 19.07382,82.25969 L 25.4125,30.611719"
       id="path7097"
       sodipodi:nodetypes="cccsccccccsscc" />
    <path
       style="color:#000000;fill:#828282;fill-opacity:0.5;stroke:none;stroke-width:0.264583;stroke-miterlimit:4;stroke-dasharray:none;stroke-opacity:1"
       d="m 56.42712,46.332935 -1.93915,10.03356 -2.98411,18.826688 -0.17579,1.757902 c -0.007,1.287556 -0.0512,2.306349 0.25692,1.467096 1.58344,-4.313341 6.51364,-33.681482 7.24785,-40.220722 0.32758,-2.9176 -0.47935,-1.46153 -2.40572,8.135476 z"
       id="path9659"
       sodipodi:nodetypes="ccccssc" />
  </g>
    <animateTransform
     attributeName="transform"
     type="rotate"
     from="0 0 0"
     to="360 0 0"
     dur="6s"
     
     repeatCount="indefinite" />
</svg>
